<svg width="100" height="100" viewBox="0 0 100 100" fill="none" xmlns="http://www.w3.org/2000/svg">
<mask id="mask0_1249_4505" style="mask-type:alpha" maskUnits="userSpaceOnUse" x="0" y="0" width="100" height="100">
<path fill-rule="evenodd" clip-rule="evenodd" d="M50 100C77.6142 100 100 77.6142 100 50C100 22.3858 77.6142 0 50 0C22.3858 0 0 22.3858 0 50C0 77.6142 22.3858 100 50 100ZM50 85C69.33 85 85 69.33 85 50C85 30.67 69.33 15 50 15C30.67 15 15 30.67 15 50C15 69.33 30.67 85 50 85Z" fill="#C4C4C4"/>
</mask>
<g mask="url(#mask0_1249_4505)">
<rect y="100" width="100" height="100" transform="rotate(-90 0 100)" fill="url(#paint0_angular_1249_4505)"/>
<circle cx="92.5" cy="49.5" r="7.5" transform="rotate(-90 92.5 49.5)" fill="white"/>
</g>
<defs>
<radialGradient id="paint0_angular_1249_4505" cx="0" cy="0" r="1" gradientUnits="userSpaceOnUse" gradientTransform="translate(50 150) rotate(90) scale(50)">
<stop stop-color="white"/>
<stop offset="1" stop-color="white" stop-opacity="0"/>
</radialGradient>
</defs>
</svg>
